<svg width="48" height="48" viewBox="0 0 48 48" fill="none" xmlns="http://www.w3.org/2000/svg">
    <path d="M13.1497 17.3139C14.4996 16.011 15.9945 14.839 17.6342 13.7977C24.3606 9.52072 31.0594 5.21342 37.7307 0.875872C38.2554 0.534137 38.8627 0.244907 39.5524 0.00818432C39.5711 0.00199084 39.5911 -0.000741777 39.6112 0.000172164C39.6312 0.0010861 39.6508 0.00562503 39.6686 0.0134803C39.6864 0.0213355 39.7019 0.0323221 39.7142 0.0456908C39.7264 0.0590596 39.7351 0.0744965 39.7397 0.0909488C39.892 0.672967 39.9703 1.21494 39.9745 1.71686C40.0147 6.2769 40.0073 10.8378 39.9523 15.3996C39.9164 18.3044 39.8571 20.0834 39.7746 20.7366C39.2604 24.7929 37.353 28.2788 34.0522 31.1942C33.2144 31.9364 31.6 33.0818 29.2091 34.6303C23.0011 38.6546 16.8048 42.6895 10.6202 46.7352C10.6011 46.7494 10.4202 46.8767 10.0775 47.117C9.68602 47.3911 9.20254 47.6572 8.62703 47.9152C8.22502 48.0932 8.02189 47.9909 8.01766 47.6082C7.98381 41.8396 7.99862 36.1316 8.0621 30.4841C8.0896 28.0225 8.23348 26.2506 8.49373 25.1685C9.19408 22.2477 10.7461 19.6295 13.1497 17.3139Z" fill="#3BC39D"/>
</svg>
